<svg xmlns="http://www.w3.org/2000/svg" viewBox="0 0 66.924 57.693">
  <defs>
    <style>
      .cls-1 {
        fill: #e7475e;
      }

      .cls-2 {
        fill: #322153;
      }
    </style>
  </defs>
  <g id="chat" transform="translate(0 -32)">
    <path id="Path_339" data-name="Path 339" class="cls-1" d="M179.847,72H138.308A2.315,2.315,0,0,0,136,74.308V85.846h25.385a2.315,2.315,0,0,1,2.308,2.308v16.154h4.615l9.231,9.231v-9.231h2.308A2.315,2.315,0,0,0,182.154,102V74.308A2.315,2.315,0,0,0,179.847,72Z" transform="translate(-116.384 -34.231)"/>
    <g id="Group_153" data-name="Group 153" transform="translate(0 32)">
      <path id="Path_340" data-name="Path 340" class="cls-2" d="M3.462,80.462H4.615v8.077a1.009,1.009,0,0,0,.692,1.038.694.694,0,0,0,.462.115,1.047,1.047,0,0,0,.808-.346l8.885-8.885H45A3.4,3.4,0,0,0,48.462,77V66.616h3L60.347,75.5a1.048,1.048,0,0,0,.808.346.694.694,0,0,0,.462-.115,1.109,1.109,0,0,0,.692-1.038V66.616h1.154a3.4,3.4,0,0,0,3.462-3.462V35.462A3.4,3.4,0,0,0,63.462,32H21.923a3.4,3.4,0,0,0-3.462,3.462V45.846h-15A3.4,3.4,0,0,0,0,49.308V77A3.4,3.4,0,0,0,3.462,80.462Zm17.308-45a1.09,1.09,0,0,1,1.154-1.154H63.462a1.09,1.09,0,0,1,1.154,1.154V63.154a1.09,1.09,0,0,1-1.154,1.154H61.155A1.09,1.09,0,0,0,60,65.462v6.462l-7.269-7.269a1.047,1.047,0,0,0-.808-.346H48.462v-15A3.4,3.4,0,0,0,45,45.846H20.769ZM2.308,49.308a1.09,1.09,0,0,1,1.154-1.154H45a1.09,1.09,0,0,1,1.154,1.154V77A1.09,1.09,0,0,1,45,78.154H15a1.048,1.048,0,0,0-.808.346L6.923,85.77V79.308a1.09,1.09,0,0,0-1.154-1.154H3.462A1.09,1.09,0,0,1,2.308,77Z" transform="translate(0 -32)"/>
      <path id="Path_341" data-name="Path 341" class="cls-2" d="M65.154,194.308H83.616a1.154,1.154,0,1,0,0-2.308H65.154a1.154,1.154,0,1,0,0,2.308Z" transform="translate(-54.769 -168.923)"/>
      <path id="Path_342" data-name="Path 342" class="cls-2" d="M225.154,194.308h4.615a1.154,1.154,0,1,0,0-2.308h-4.615a1.154,1.154,0,1,0,0,2.308Z" transform="translate(-191.692 -168.923)"/>
      <path id="Path_343" data-name="Path 343" class="cls-2" d="M65.154,226.308h9.231a1.154,1.154,0,1,0,0-2.308H65.154a1.154,1.154,0,1,0,0,2.308Z" transform="translate(-54.769 -196.307)"/>
      <path id="Path_344" data-name="Path 344" class="cls-2" d="M175,224H161.154a1.154,1.154,0,1,0,0,2.308H175A1.154,1.154,0,1,0,175,224Z" transform="translate(-136.923 -196.307)"/>
      <path id="Path_345" data-name="Path 345" class="cls-2" d="M65.154,258.308H92.846a1.154,1.154,0,0,0,0-2.308H65.154a1.154,1.154,0,0,0,0,2.308Z" transform="translate(-54.769 -223.692)"/>
      <path id="Path_346" data-name="Path 346" class="cls-2" d="M65.154,290.308h4.615a1.154,1.154,0,1,0,0-2.308H65.154a1.154,1.154,0,1,0,0,2.308Z" transform="translate(-54.769 -251.077)"/>
      <path id="Path_347" data-name="Path 347" class="cls-2" d="M147.616,288H129.154a1.154,1.154,0,1,0,0,2.308h18.462a1.154,1.154,0,1,0,0-2.308Z" transform="translate(-109.538 -251.077)"/>
      <path id="Path_348" data-name="Path 348" class="cls-2" d="M212.769,97.154A1.09,1.09,0,0,0,211.616,96H193.154a1.154,1.154,0,1,0,0,2.308h18.462A1.09,1.09,0,0,0,212.769,97.154Z" transform="translate(-164.307 -86.769)"/>
      <path id="Path_349" data-name="Path 349" class="cls-2" d="M353.154,98.308h4.615a1.154,1.154,0,0,0,0-2.308h-4.615a1.154,1.154,0,1,0,0,2.308Z" transform="translate(-301.23 -86.769)"/>
      <path id="Path_350" data-name="Path 350" class="cls-2" d="M353.154,130.308h4.615a1.154,1.154,0,0,0,0-2.308h-4.615a1.154,1.154,0,1,0,0,2.308Z" transform="translate(-301.23 -114.154)"/>
      <path id="Path_351" data-name="Path 351" class="cls-2" d="M353.154,162.308h4.615a1.154,1.154,0,0,0,0-2.308h-4.615a1.154,1.154,0,1,0,0,2.308Z" transform="translate(-301.23 -141.538)"/>
      <path id="Path_352" data-name="Path 352" class="cls-2" d="M353.154,194.308h4.615a1.154,1.154,0,0,0,0-2.308h-4.615a1.154,1.154,0,1,0,0,2.308Z" transform="translate(-301.23 -168.923)"/>
    </g>
  </g>
</svg>
