<svg xmlns="http://www.w3.org/2000/svg" viewBox="0 0 125.2 125">
  <defs>
    <style>
      .cls-1 {
        fill: #e7475e;
      }
    </style>
  </defs>
  <g id="client-4" transform="translate(-37.3 -337.399)">
    <g id="XMLID_4212_">
      <circle id="XMLID_4294_" class="cls-1" cx="6.3" cy="6.3" r="6.3" transform="translate(93.7 381.1)"/>
      <path id="XMLID_4290_" class="cls-1" d="M160.8,443.7l-49.5-99a12.551,12.551,0,0,0-22.8,0L39,443.7a12.026,12.026,0,0,0-1.7,6.2,12.5,12.5,0,0,0,12.5,12.5H62.3a12.5,12.5,0,0,1,12.5-12.5h3.1a12.5,12.5,0,0,1,12.5-12.5V421.8h18.8v15.6a12.5,12.5,0,0,1,12.5,12.5h3.1a12.5,12.5,0,0,1,12.5,12.5H150a12.5,12.5,0,0,0,12.5-12.5,12.026,12.026,0,0,0-1.7-6.2ZM65.6,426.2H63.7v1.9a1.3,1.3,0,0,1-2.6,0v-1.9H59.2a1.3,1.3,0,0,1,0-2.6h1.9v-1.9a1.3,1.3,0,0,1,2.6,0v1.9h1.9a1.3,1.3,0,1,1,0,2.6Zm12.5,12.5H76.2v1.9a1.3,1.3,0,0,1-2.6,0v-1.9H71.7a1.3,1.3,0,0,1,0-2.6h1.9v-1.9a1.3,1.3,0,0,1,2.6,0v1.9h1.9a1.3,1.3,0,1,1,0,2.6Zm37.5-26.3-6.3,6.3H90.6l-6.3-6.3H75v-6.3c0-12.5,9.4-12.5,9.4-12.5v-6.3c0-25,15.6-31.3,15.6-31.3s15.6,6.3,15.6,31.3v6.3s9.4,0,9.4,12.5v6.3Zm12.5,26.3h-1.9v1.9a1.3,1.3,0,0,1-2.6,0v-1.9h-1.9a1.3,1.3,0,0,1,0-2.6h1.9v-1.9a1.3,1.3,0,0,1,2.6,0v1.9h1.9a1.3,1.3,0,1,1,0,2.6Zm12.5-12.5h-1.9v1.9a1.3,1.3,0,1,1-2.6,0v-1.9h-1.9a1.3,1.3,0,0,1,0-2.6h1.9v-1.9a1.3,1.3,0,1,1,2.6,0v1.9h1.9a1.3,1.3,0,1,1,0,2.6Z"/>
    </g>
  </g>
</svg>
