<svg xmlns="http://www.w3.org/2000/svg" viewBox="0 0 74 123.75">
  <defs>
    <style>
      .cls-1 {
        fill: #e7475e;
      }
    </style>
  </defs>
  <g id="client-2" transform="translate(-663.2 -334.95)">
    <g id="XMLID_4235_">
      <path id="XMLID_4251_" class="cls-1" d="M700,377.4a8.8,8.8,0,1,0-8.8-8.8,8.8,8.8,0,0,0,8.8,8.8Zm0-12.5a3.8,3.8,0,1,1-3.8,3.8,3.8,3.8,0,0,1,3.8-3.8Z"/>
      <path id="XMLID_4254_" class="cls-1" d="M718,364.6c-.8-11.3-4.8-18.4-8.2-22.5a25.833,25.833,0,0,0-8.8-7,3.083,3.083,0,0,0-1.9,0,25.833,25.833,0,0,0-8.8,7c-3.4,4.1-7.5,11.3-8.2,22.5a36.757,36.757,0,0,0-18.9,32.2v53.1a8.8,8.8,0,0,0,17.6,0V428a.6.6,0,0,1,1.2,0v15.6a8.8,8.8,0,1,0,17.6,0V428a.6.6,0,1,1,1.2,0v15.6a8.8,8.8,0,0,0,17.6,0V428a.6.6,0,1,1,1.2,0v21.9a8.8,8.8,0,0,0,17.6,0V396.8A37.656,37.656,0,0,0,718,364.6Zm.1,26c.3.2.6.3,1,.6,2.3,1.6,3.4,4.6,3.4,8.7v3.8h-4.4Zm-31.2-21.9c0-9.6,2.4-17.4,7-23.2a22.335,22.335,0,0,1,6.1-5.3,22.336,22.336,0,0,1,6.1,5.3c4.7,5.7,7,13.5,7,23.2v36.5l-4.8,4.8H691.6l-4.8-4.8V368.7Zm-9.4,35v-3.8c0-5.9,2.4-8.4,4.4-9.3v13.1h-4.4Zm54.4,46.2a3.8,3.8,0,0,1-7.6,0V428a5.6,5.6,0,1,0-11.2,0v15.6a3.8,3.8,0,0,1-7.6,0V428a5.6,5.6,0,1,0-11.2,0v15.6a3.8,3.8,0,1,1-7.6,0V428a5.6,5.6,0,1,0-11.2,0v21.9a3.8,3.8,0,0,1-7.6,0V396.8a31.827,31.827,0,0,1,13.7-26.2v14.7a15.375,15.375,0,0,0-3.6,1.6c-2.6,1.8-5.8,5.5-5.8,13v6.3a2.476,2.476,0,0,0,2.5,2.5H683l5.5,5.5a2.41,2.41,0,0,0,1.8.7h18.8a2.874,2.874,0,0,0,1.8-.7l5.5-5.5h8.3a2.476,2.476,0,0,0,2.5-2.5v-6.3c0-7.6-3.2-11.3-5.8-13a13.769,13.769,0,0,0-3.6-1.6V370.6a31.665,31.665,0,0,1,13.8,26.2v53.1Z"/>
    </g>
  </g>
</svg>
