<svg xmlns="http://www.w3.org/2000/svg" viewBox="0 0 100.002 105.95">
  <defs>
    <style>
      .cls-1 {
        fill: #e7475e;
      }
    </style>
  </defs>
  <g id="client-1" transform="translate(-249.899 -535.15)">
    <g id="XMLID_1751_">
      <path id="XMLID_2959_" class="cls-1" d="M300,560.2a8.8,8.8,0,1,0,8.8,8.8A8.8,8.8,0,0,0,300,560.2Zm0,12.5a3.8,3.8,0,1,1,3.8-3.8A3.864,3.864,0,0,1,300,572.7Z"/>
      <path id="XMLID_2964_" class="cls-1" d="M315.5,552.6a32.5,32.5,0,0,0-5.8-10.3,25.832,25.832,0,0,0-8.8-7,3.083,3.083,0,0,0-1.9,0,25.833,25.833,0,0,0-8.8,7,34.557,34.557,0,0,0-5.8,10.3,49.99,49.99,0,0,0-17.6,85h0a14.32,14.32,0,0,0,23.7-10.8V615h18.8v11.8A14.32,14.32,0,0,0,333,637.6h0a50.018,50.018,0,0,0-17.5-85Zm-49.9,48.8h-1.9v1.9a1.3,1.3,0,0,1-2.6,0v-1.9h-1.9a1.3,1.3,0,0,1,0-2.6h1.9V597a1.3,1.3,0,0,1,2.6,0v1.9h1.9a1.324,1.324,0,0,1,1.3,1.3,1.309,1.309,0,0,1-1.3,1.2Zm5-20a1.324,1.324,0,0,1,1.3-1.3h1.9v-1.9a1.3,1.3,0,0,1,2.6,0v1.9h1.9a1.3,1.3,0,0,1,0,2.6h-1.9v1.9a1.3,1.3,0,0,1-2.6,0v-1.9h-1.9a1.324,1.324,0,0,1-1.3-1.3Zm21.1,28.8-5.5-5.5a2.41,2.41,0,0,0-1.8-.7h-6.9v-3.8c0-9.5,6.1-10,6.9-10a2.4,2.4,0,0,0,2.5-2.5V568.9c0-9.6,2.4-17.4,7-23.2a22.334,22.334,0,0,1,6.1-5.3,22.336,22.336,0,0,1,6.1,5.3c4.7,5.7,7,13.5,7,23.2v18.8a2.476,2.476,0,0,0,2.5,2.5c.3,0,6.9.1,6.9,10V604h-6.9a2.875,2.875,0,0,0-1.8.7l-5.5,5.5Zm36.4-27.5h-1.9v1.9a1.3,1.3,0,0,1-2.6,0v-1.9h-1.9a1.3,1.3,0,0,1,0-2.6h1.9v-1.9a1.3,1.3,0,0,1,2.6,0v1.9h1.9a1.3,1.3,0,0,1,0,2.6Z"/>
    </g>
  </g>
</svg>
