<svg xmlns="http://www.w3.org/2000/svg" viewBox="0 0 105 105">
  <defs>
    <style>
      .cls-1 {
        fill: #e7475e;
      }
    </style>
  </defs>
  <g id="client-5" transform="translate(-647.5 -147.4)">
    <g id="XMLID_4313_">
      <path id="XMLID_4333_" class="cls-1" d="M700,147.4a52.5,52.5,0,1,0,52.5,52.5A52.5,52.5,0,0,0,700,147.4Zm0,5a47.466,47.466,0,0,1,35.6,78.9,12.485,12.485,0,0,0-9,6.2,8.6,8.6,0,0,0-1.6-.1,11.767,11.767,0,0,0-5.9,1.5,12.547,12.547,0,0,0-9.7-4.6V221.2h0a2.875,2.875,0,0,0,1.8-.7l5.5-5.5H725a2.476,2.476,0,0,0,2.5-2.5v-6.3c0-7.6-3.2-11.3-5.8-13a13.768,13.768,0,0,0-3.6-1.6v-4.1c0-13.7-4.6-22-8.4-26.6a25.833,25.833,0,0,0-8.8-7,3.083,3.083,0,0,0-1.9,0,25.833,25.833,0,0,0-8.8,7c-3.8,4.6-8.4,12.9-8.4,26.6v4.1a15.375,15.375,0,0,0-3.6,1.6c-2.6,1.8-5.8,5.5-5.8,13v6.3a2.476,2.476,0,0,0,2.5,2.5h8.3l5.5,5.5a2.41,2.41,0,0,0,1.8.7v13.1a12.547,12.547,0,0,0-9.7,4.6,12.038,12.038,0,0,0-5.9-1.5,8.6,8.6,0,0,0-1.6.1,12.485,12.485,0,0,0-9-6.2A47.466,47.466,0,0,1,700,152.4Zm-22.5,57.5v-3.8c0-5.9,2.4-8.4,4.4-9.3v13.1Zm9.4-16.2v-6.3c0-9.6,2.4-17.4,7-23.2a22.336,22.336,0,0,1,6.1-5.3c3.1,1.8,13.1,8.9,13.1,28.5v24l-4.8,4.8H691.6l-4.8-4.8V193.7Zm31.2,3.2c.3.2.6.3,1,.6,2.3,1.6,3.4,4.6,3.4,8.7V210h-4.4Z"/>
      <path id="XMLID_4345_" class="cls-1" d="M700,196.2a8.8,8.8,0,1,0-8.8-8.8,8.8,8.8,0,0,0,8.8,8.8Zm0-12.5a3.8,3.8,0,1,1-3.8,3.8,3.8,3.8,0,0,1,3.8-3.8Z"/>
    </g>
  </g>
</svg>
