<svg xmlns="http://www.w3.org/2000/svg" viewBox="0 0 104.969 104.969">
  <defs>
    <style>
      .cls-1 {
        fill: #e7475e;
      }
    </style>
  </defs>
  <g id="client-6" transform="translate(-47.512 -147.418)">
    <g id="XMLID_4357_">
      <path id="XMLID_4380_" class="cls-1" d="M97.1,181.6l-11.8-3.9a2.519,2.519,0,0,0-2.6.6L60.6,200.4a2.416,2.416,0,0,0,0,3.5l4.4,4.4a2.41,2.41,0,0,0,1.8.7h.5l9.7-1.9,8,7.9h0l7.9,7.9L91,232.6a2.493,2.493,0,0,0,.7,2.3l4.4,4.4a2.41,2.41,0,0,0,1.8.7,2.567,2.567,0,0,0,1.8-.7l22.1-22.1a2.519,2.519,0,0,0,.6-2.6l-3.9-11.8,1.1-1.1c14.9-14.9,24.1-27.2,27.1-36.3,2.6-7.7-.1-10.8-.6-11.4-.6-.6-3.7-3.2-11.4-.6-9.2,3.1-21.4,12.2-36.3,27.1ZM66,202.2,85.2,183l8,2.7L76.7,202.2l-9,1.8Zm48.4,4.6,2.7,8L97.8,234l-1.7-1.7,1.8-9,14.8-14.8Zm20.2-48.1c5.1-2.1,7.3-1.4,7.9-1.1,0,.1.1.5.1.6a11.7,11.7,0,0,1-.7,5.6,44.325,44.325,0,0,1-4.1,8.4l-9.9-9.9a36.553,36.553,0,0,1,6.7-3.6Zm-11.1,6.4,11.4,11.4A177,177,0,0,1,116,198.2l-2.2,2.2h0L95.7,218.5l-5.3-5.3,18.1-18.1a2.475,2.475,0,1,0-3.5-3.5L86.9,209.7l-5.3-5.3,18.1-18.1h0l2.2-2.2a167.583,167.583,0,0,1,21.6-19Z"/>
      <path id="XMLID_4386_" class="cls-1" d="M117.7,191a8.882,8.882,0,0,0,6.2-2.6,8.54,8.54,0,0,0,2.6-6.2,8.708,8.708,0,0,0-2.6-6.2,8.812,8.812,0,0,0-12.4,0,8.692,8.692,0,0,0,0,12.4A8.316,8.316,0,0,0,117.7,191ZM115,179.6a3.864,3.864,0,0,1,2.7-1.1,4.049,4.049,0,0,1,2.7,1.1,3.693,3.693,0,0,1,1.1,2.7,4.049,4.049,0,0,1-1.1,2.7,3.75,3.75,0,0,1-6.4-2.7A3.394,3.394,0,0,1,115,179.6Z"/>
      <path id="XMLID_4389_" class="cls-1" d="M83.8,237.5A35.677,35.677,0,0,0,91.3,225a2.507,2.507,0,0,0-.6-2.5l-6.6-6.6h0l-6.6-6.6a2.353,2.353,0,0,0-2.5-.6,36.612,36.612,0,0,0-12.5,7.5c-5.5,5.1-11.5,14.1-9.1,28.4a2.549,2.549,0,0,0,2.1,2.1,34.813,34.813,0,0,0,6.3.5,29.6,29.6,0,0,0,22-9.7ZM58,241.9c-1-8.9,1.6-16.3,7.7-22a32.244,32.244,0,0,1,9.3-6l3.7,3.7-7.1,7.1a2.451,2.451,0,0,0,1.8,4.2,2.567,2.567,0,0,0,1.8-.7l7.1-7.1,3.7,3.7a30.972,30.972,0,0,1-6,9.3C74.3,240.4,66.9,242.9,58,241.9Z"/>
      <path id="XMLID_4390_" class="cls-1" d="M56.5,219a47.527,47.527,0,0,1,64.8-61.6c1.7-1.1,3.3-2.1,4.9-3a52.522,52.522,0,0,0-72.8,69.7,36.387,36.387,0,0,1,3.1-5.1Z"/>
      <path id="XMLID_4391_" class="cls-1" d="M145.5,173.7c-.9,1.6-1.9,3.2-3,4.9a47.527,47.527,0,0,1-61.6,64.8,31.4,31.4,0,0,1-5.1,3.1,52.522,52.522,0,0,0,69.7-72.8Z"/>
    </g>
  </g>
</svg>
