<svg xmlns="http://www.w3.org/2000/svg" viewBox="0 0 105 98.85">
  <defs>
    <style>
      .cls-1 {
        fill: #e7475e;
      }
    </style>
  </defs>
  <g id="client-3" transform="translate(-247.5 -353.65)">
    <g id="XMLID_4214_">
      <path id="XMLID_4279_" class="cls-1" d="M321.7,399.4a13.769,13.769,0,0,0-3.6-1.6V387.4a48.554,48.554,0,0,0-2.6-16.2.764.764,0,0,0-.2-.5,33.139,33.139,0,0,0-5.6-9.9,25.833,25.833,0,0,0-8.8-7,3.083,3.083,0,0,0-1.9,0,25.833,25.833,0,0,0-8.8,7,33.14,33.14,0,0,0-5.6,9.9c-.1.2-.1.3-.2.5a48.553,48.553,0,0,0-2.6,16.2v10.4a15.372,15.372,0,0,0-3.6,1.6c-2.6,1.8-5.8,5.5-5.8,13v6.3a2.476,2.476,0,0,0,2.5,2.5h8.3l5.5,5.5a2.41,2.41,0,0,0,1.8.7h18.8a2.875,2.875,0,0,0,1.8-.7l5.5-5.5h8.3a2.476,2.476,0,0,0,2.5-2.5v-6.3C327.5,404.9,324.3,401.2,321.7,399.4Zm-39.8,16.8h-4.4v-3.8c0-5.9,2.4-8.4,4.4-9.3Zm12-51.9A22.333,22.333,0,0,1,300,359a22.335,22.335,0,0,1,6.1,5.3,28.421,28.421,0,0,1,3.2,5H290.6a36.067,36.067,0,0,1,3.3-5Zm19.2,35.6v17.7l-4.8,4.8H291.6l-4.8-4.8V387.4a44.616,44.616,0,0,1,1.8-13.1h22.7a44.616,44.616,0,0,1,1.8,13.1Zm9.4,16.3h-4.4V403.1c.3.2.6.3,1,.6,2.3,1.6,3.4,4.6,3.4,8.7Z"/>
      <path id="XMLID_4293_" class="cls-1" d="M290.6,428.7a2.476,2.476,0,0,0-2.5,2.5V450a2.5,2.5,0,0,0,5,0V431.2a2.476,2.476,0,0,0-2.5-2.5Z"/>
      <path id="XMLID_4297_" class="cls-1" d="M309.4,428.7a2.476,2.476,0,0,0-2.5,2.5V450a2.5,2.5,0,0,0,5,0V431.2a2.54,2.54,0,0,0-2.5-2.5Z"/>
      <path id="XMLID_4298_" class="cls-1" d="M300.1,428.7a2.476,2.476,0,0,0-2.5,2.5V450a2.5,2.5,0,0,0,5,0V431.2a2.476,2.476,0,0,0-2.5-2.5Z"/>
      <path id="XMLID_4299_" class="cls-1" d="M265.6,388.7h1.9v1.9a1.3,1.3,0,0,0,2.6,0v-1.9H272a1.3,1.3,0,0,0,0-2.6h-2v-1.9a1.3,1.3,0,0,0-2.6,0v1.9h-1.9a1.324,1.324,0,0,0-1.3,1.3,1.584,1.584,0,0,0,1.4,1.3Z"/>
      <path id="XMLID_4301_" class="cls-1" d="M328.1,388.7H330v1.9a1.3,1.3,0,0,0,2.6,0v-1.9h1.9a1.3,1.3,0,0,0,0-2.6h-1.9v-1.9a1.3,1.3,0,0,0-2.6,0v1.9h-1.9a1.324,1.324,0,0,0-1.3,1.3,1.4,1.4,0,0,0,1.3,1.3Z"/>
      <path id="XMLID_4303_" class="cls-1" d="M300,378.7a8.65,8.65,0,0,0-8.7,8.7,2.476,2.476,0,0,0,2.5,2.5,3.255,3.255,0,0,0,1.4-.4,2.356,2.356,0,0,0,1.1-2.1,3.794,3.794,0,0,1,1.7-3.1,3.7,3.7,0,0,1,2.1-.6,3.8,3.8,0,0,1,3.8,3.8,2.476,2.476,0,0,0,2.5,2.5,2.2,2.2,0,0,0,1.9-.9,2.271,2.271,0,0,0,.6-1.6,9.031,9.031,0,0,0-8.9-8.8Z"/>
      <path id="XMLID_4304_" class="cls-1" d="M247.5,449.9a2.5,2.5,0,1,0,5,0,47.5,47.5,0,0,1,18.8-37.8,18.97,18.97,0,0,1,1.1-6.8,52.374,52.374,0,0,0-24.9,44.6Z"/>
      <path id="XMLID_4305_" class="cls-1" d="M327.6,405.3a19.366,19.366,0,0,1,1.1,6.8,47.5,47.5,0,0,1,18.8,37.8,2.5,2.5,0,0,0,5,0,52.6,52.6,0,0,0-24.9-44.6Z"/>
    </g>
  </g>
</svg>
