<svg xmlns="http://www.w3.org/2000/svg" viewBox="0 0 64.953 69.764">
  <defs>
    <style>
      .cls-1 {
        fill: #e7475e;
      }

      .cls-2 {
        fill: #322153;
      }
    </style>
  </defs>
  <g id="coffee-cup" transform="translate(-16)">
    <path id="Path_320" data-name="Path 320" class="cls-1" d="M353.623,200H344v4.811h7.217a2.413,2.413,0,0,1,2.406,2.406v9.623a2.413,2.413,0,0,1-2.406,2.406H344v4.811h9.623a4.825,4.825,0,0,0,4.811-4.811V204.811A4.825,4.825,0,0,0,353.623,200Z" transform="translate(-278.684 -169.929)"/>
    <g id="Group_151" data-name="Group 151" transform="translate(16)">
      <path id="Path_321" data-name="Path 321" class="cls-2" d="M74.939,132.811h-8.42v-1.2A3.544,3.544,0,0,0,62.91,128h-43.3A3.544,3.544,0,0,0,16,131.608v21.05c0,13.833,10.946,25.38,24.3,25.861h.962a25.258,25.258,0,0,0,17.561-7.1A24.865,24.865,0,0,0,65.8,159.274h9.142a5.956,5.956,0,0,0,6.014-6.014V138.825A5.956,5.956,0,0,0,74.939,132.811Zm-8.42,7.217h6.014a1.136,1.136,0,0,1,1.2,1.2v9.623a1.136,1.136,0,0,1-1.2,1.2H66.519Zm-9.382,29.71a22.642,22.642,0,0,1-16.719,6.375c-12.149-.481-22.012-10.946-22.012-23.455v-21.05a1.136,1.136,0,0,1,1.2-1.2h43.3a1.136,1.136,0,0,1,1.2,1.2v21.651A22.924,22.924,0,0,1,57.137,169.738Zm21.41-16.479a3.544,3.544,0,0,1-3.608,3.608h-8.42v-2.406h6.014a3.544,3.544,0,0,0,3.608-3.608v-9.623a3.544,3.544,0,0,0-3.608-3.608H66.519v-2.406h8.42a3.544,3.544,0,0,1,3.608,3.608Z" transform="translate(-16 -108.755)"/>
      <path id="Path_322" data-name="Path 322" class="cls-2" d="M68.448,307.245A18.018,18.018,0,0,1,50.406,289.2a1.2,1.2,0,0,0-2.406,0,20.431,20.431,0,0,0,20.448,20.448,1.2,1.2,0,0,0,0-2.406Z" transform="translate(-43.189 -244.698)"/>
      <path id="Path_323" data-name="Path 323" class="cls-2" d="M153.983,224.361l-9.623,9.623a1.163,1.163,0,0,0,0,1.684,1.163,1.163,0,0,0,1.684,0l9.623-9.623a1.191,1.191,0,0,0-1.684-1.684Z" transform="translate(-124.755 -190.321)"/>
      <path id="Path_324" data-name="Path 324" class="cls-2" d="M145.2,231.217a1.092,1.092,0,0,0,.842-.361l4.811-4.811a1.191,1.191,0,0,0-1.684-1.684l-4.811,4.811a1.163,1.163,0,0,0,0,1.684A1.092,1.092,0,0,0,145.2,231.217Z" transform="translate(-124.755 -190.321)"/>
      <path id="Path_325" data-name="Path 325" class="cls-2" d="M181.172,256.361l-4.811,4.811a1.163,1.163,0,0,0,0,1.684,1.163,1.163,0,0,0,1.684,0l4.811-4.811a1.191,1.191,0,0,0-1.684-1.684Z" transform="translate(-151.943 -217.509)"/>
      <path id="Path_326" data-name="Path 326" class="cls-2" d="M178.406,15.637V1.2A1.2,1.2,0,0,0,176,1.2V15.637a1.2,1.2,0,0,0,2.406,0Z" transform="translate(-151.943)"/>
      <path id="Path_327" data-name="Path 327" class="cls-2" d="M114.406,38.014V33.2a1.2,1.2,0,1,0-2.406,0v4.811a1.2,1.2,0,0,0,2.406,0Z" transform="translate(-97.566 -27.189)"/>
      <path id="Path_328" data-name="Path 328" class="cls-2" d="M242.406,38.014V33.2a1.2,1.2,0,1,0-2.406,0v4.811a1.2,1.2,0,1,0,2.406,0Z" transform="translate(-206.321 -27.189)"/>
      <path id="Path_329" data-name="Path 329" class="cls-2" d="M146.406,42.825V33.2a1.2,1.2,0,1,0-2.406,0v9.623a1.2,1.2,0,1,0,2.406,0Z" transform="translate(-124.755 -27.189)"/>
      <path id="Path_330" data-name="Path 330" class="cls-2" d="M210.406,10.825V1.2A1.2,1.2,0,1,0,208,1.2v9.623a1.2,1.2,0,1,0,2.406,0Z" transform="translate(-179.132)"/>
    </g>
  </g>
</svg>
