<svg xmlns="http://www.w3.org/2000/svg" viewBox="0 0 41.947 60.923">
  <defs>
    <style>
      .cls-1 {
        fill: #e7475e;
      }

      .cls-2 {
        fill: #322153;
      }
    </style>
  </defs>
  <g id="idea" transform="translate(-76)">
    <path id="Path_317" data-name="Path 317" class="cls-1" d="M171.97,337.987a2,2,0,0,0-2-2H163.98V330a2,2,0,0,0-2-2h-3.995a2,2,0,0,0-2,2v5.992H150a2,2,0,1,0,0,3.995h3.995a2,2,0,1,0,0,3.995h2v3.995h7.99V343.98h2a2,2,0,1,0,0-3.995h3.995A2,2,0,0,0,171.97,337.987Z" transform="translate(-63.011 -287.052)"/>
    <g id="Group_150" data-name="Group 150" transform="translate(76)">
      <path id="Path_318" data-name="Path 318" class="cls-2" d="M113.852,33.358a20.485,20.485,0,0,0,4.095-12.384,20.973,20.973,0,0,0-41.947,0,20.485,20.485,0,0,0,4.095,12.384.1.1,0,0,0,.1.1l6.991,10.387h-.2a3,3,0,1,0,0,5.992h1.2a2.93,2.93,0,0,0,2.8,3.995h1v3a.944.944,0,0,0,1,1h7.99a.944.944,0,0,0,1-1v-3h1a2.93,2.93,0,0,0,2.8-3.995h1.2a3,3,0,0,0,0-5.992h-.1l6.991-10.387ZM107.96,46.941a.944.944,0,0,1-1,1h-3.995a1,1,0,0,0,0,2,1,1,0,1,1,0,2H96.973a1,1,0,0,0,0,2h3v2H93.977v-3a.944.944,0,0,0-1-1h-2a1,1,0,1,1,0-2h5.992a1,1,0,1,0,0-2H86.986a1,1,0,0,1,0-2h19.975A.944.944,0,0,1,107.96,46.941Zm-8.989-8.989a.944.944,0,0,1,1,1v4.994H93.977V38.951a.944.944,0,0,1,1-1Zm12.984-5.393-7.491,11.386h-2.5V38.951a2.943,2.943,0,0,0-3-3h-1V25.867a2.765,2.765,0,0,1,.3-1.3l3.6-7.191a1.166,1.166,0,0,0,0-1,1.487,1.487,0,0,0-.9-.4h-7.99a1,1,0,1,0,0,2H99.37l-2.9,5.693a5.844,5.844,0,0,0-.5,2.2V35.954h-1a2.943,2.943,0,0,0-3,3v4.994h-2.5L81.992,32.559a.349.349,0,0,0-.1-.2A18.283,18.283,0,0,1,78,20.973a18.976,18.976,0,1,1,34.157,11.386Z" transform="translate(-76)"/>
      <path id="Path_319" data-name="Path 319" class="cls-2" d="M124.979,32A16.964,16.964,0,0,0,108,48.978a1,1,0,1,0,2,0A14.961,14.961,0,0,1,124.979,34a1,1,0,0,0,0-2Z" transform="translate(-104.005 -28.005)"/>
    </g>
  </g>
</svg>
