<?xml version="1.0" encoding="utf-8"?>
<!-- Generator: Adobe Illustrator 21.0.0, SVG Export Plug-In . SVG Version: 6.00 Build 0)  -->
<svg version="1.1" id="Layer_1" xmlns="http://www.w3.org/2000/svg" xmlns:xlink="http://www.w3.org/1999/xlink" x="0px" y="0px"
	 viewBox="0 0 157.2 51.3" style="enable-background:new 0 0 157.2 51.3;" xml:space="preserve">
<style type="text/css">
	.st0{enable-background:new    ;}
	.st1{fill:#FFFFFF;}
	.st2{fill:url(#Path_48_1_);}
	.st3{fill:url(#Path_49_1_);}
	.st4{fill:url(#Path_50-2_1_);}
</style>
<g id="Group_157" transform="translate(-131.83 -8154.878)">
	<g class="st0">
		<path class="st1" d="M198.1,8191.7l-1.1-3.2h-6.8l-1.1,3.2h-4.9l6.6-19h5.6l6.6,19H198.1z M191.4,8185h4.5l-2.2-6.8L191.4,8185z"
			/>
		<path class="st1" d="M209.9,8178.6c1-1.4,2.5-2.1,4.4-2.1s3.5,0.7,4.9,2.2c1.3,1.4,2,3.3,2,5.5s-0.7,4.1-2,5.5
			c-1.3,1.4-2.9,2.2-4.8,2.2c-1.9,0-3.4-0.8-4.5-2.4v9.4h-4.6v-22.2h4.6V8178.6z M215.5,8186.9c0.7-0.6,1-1.6,1-2.7
			c0-1.2-0.3-2.1-1-2.8c-0.7-0.6-1.4-1-2.3-1c-0.9,0-1.6,0.3-2.3,1c-0.7,0.6-1,1.6-1,2.7c0,1.2,0.3,2.1,1,2.8c0.7,0.6,1.4,1,2.3,1
			C214.1,8187.9,214.8,8187.5,215.5,8186.9z"/>
		<path class="st1" d="M228.7,8178.6c1-1.4,2.5-2.1,4.4-2.1s3.5,0.7,4.9,2.2c1.3,1.4,2,3.3,2,5.5s-0.7,4.1-2,5.5
			c-1.3,1.4-2.9,2.2-4.8,2.2c-1.9,0-3.4-0.8-4.5-2.4v9.4h-4.6v-22.2h4.6V8178.6z M234.3,8186.9c0.7-0.6,1-1.6,1-2.7
			c0-1.2-0.3-2.1-1-2.8c-0.7-0.6-1.4-1-2.3-1c-0.9,0-1.6,0.3-2.3,1c-0.7,0.6-1,1.6-1,2.7c0,1.2,0.3,2.1,1,2.8c0.7,0.6,1.4,1,2.3,1
			C232.9,8187.9,233.7,8187.5,234.3,8186.9z"/>
		<path class="st1" d="M249.4,8187.8h1.6v3.9h-2.3c-1.7,0-3-0.4-3.9-1.1s-1.4-2-1.4-3.8v-6.3h-1.4v-3.8h1.4v-3.7h4.6v3.7h3v3.8h-3
			v6.3C248,8187.4,248.4,8187.8,249.4,8187.8z"/>
		<path class="st1" d="M255.4,8189.7c-1.5-1.4-2.3-3.3-2.3-5.6c0-2.3,0.8-4.2,2.3-5.6c1.5-1.4,3.4-2.1,5.6-2.1
			c2.2,0,4.1,0.7,5.6,2.1c1.5,1.4,2.3,3.3,2.3,5.6c0,2.3-0.7,4.2-2.2,5.6c-1.5,1.4-3.4,2.1-5.6,2.1
			C258.8,8191.9,256.9,8191.1,255.4,8189.7z M263.2,8186.9c0.6-0.6,0.9-1.6,0.9-2.8c0-1.2-0.3-2.2-0.9-2.8c-0.6-0.6-1.4-1-2.2-1
			c-0.9,0-1.6,0.3-2.2,1c-0.6,0.6-0.9,1.6-0.9,2.8c0,1.2,0.3,2.2,1,2.8c0.6,0.6,1.4,1,2.3,1S262.6,8187.6,263.2,8186.9z"/>
		<path class="st1" d="M276.4,8176.6v2.2c1-1.6,2.5-2.4,4.6-2.4c1.7,0,3.1,0.6,4.2,1.7c1.1,1.2,1.6,2.7,1.6,4.7v8.8h-4.6v-8.2
			c0-1-0.3-1.7-0.8-2.3c-0.5-0.5-1.2-0.8-2.1-0.8c-0.9,0-1.6,0.3-2.1,0.8c-0.5,0.5-0.8,1.3-0.8,2.3v8.2h-4.6v-15.1H276.4z"/>
	</g>
	<g id="logo-footer" transform="translate(136.192 8197.135)">
		<g id="Group_91" transform="translate(0 -73.6)">
			
				<linearGradient id="Path_48_1_" gradientUnits="userSpaceOnUse" x1="-224.8022" y1="438.7307" x2="-223.8022" y2="438.7307" gradientTransform="matrix(40.649 0 0 -24.417 9137.9844 10782.9111)">
				<stop  offset="7.000001e-03" style="stop-color:#3CB5FB"/>
				<stop  offset="1" style="stop-color:#0071FF"/>
			</linearGradient>
			<path id="Path_48" class="st2" d="M40.6,70.6L18.5,58.2L0,69.3l20.6,13.3L40.6,70.6z"/>
			
				<linearGradient id="Path_49_1_" gradientUnits="userSpaceOnUse" x1="-223.5672" y1="437.4408" x2="-224.5022" y2="439.1068" gradientTransform="matrix(40.649 0 0 -24.417 9137.9844 10782.9111)">
				<stop  offset="0" style="stop-color:#E2E1E6"/>
				<stop  offset="0.425" style="stop-color:#FFFFFF"/>
				<stop  offset="1" style="stop-color:#E2E1E6"/>
			</linearGradient>
			<path id="Path_49" class="st3" d="M40.6,70.6L18.5,58.2L0,69.3l20.6,13.3L40.6,70.6z"/>
			<g transform="matrix(1, 0, 0, 1, -4.36, 31.34)">
				
					<linearGradient id="Path_50-2_1_" gradientUnits="userSpaceOnUse" x1="-220.32" y1="412.095" x2="-219.32" y2="412.095" gradientTransform="matrix(39.775 0 0 -35.453 8767.7295 14630.2305)">
					<stop  offset="0" style="stop-color:#00FDFA"/>
					<stop  offset="0" style="stop-color:#E2E1E6"/>
					<stop  offset="1" style="stop-color:#FFFFFF"/>
				</linearGradient>
				<path id="Path_50-2" class="st4" d="M44.3,14.1L25.1,2.5L4.5,15.9v22L44.3,14.1z"/>
			</g>
		</g>
	</g>
</g>
</svg>
