<?xml version="1.0" encoding="utf-8"?>
<!-- Generator: Adobe Illustrator 21.0.0, SVG Export Plug-In . SVG Version: 6.00 Build 0)  -->
<svg version="1.1" id="Layer_1" xmlns="http://www.w3.org/2000/svg" xmlns:xlink="http://www.w3.org/1999/xlink" x="0px" y="0px"
	 viewBox="0 0 150.7 48.8" style="enable-background:new 0 0 150.7 48.8;" xml:space="preserve">
<style type="text/css">
	.st0{enable-background:new    ;}
	.st1{fill:#333333;}
	.st2{fill:url(#Path_48_1_);}
	.st3{fill:url(#Path_49_1_);}
	.st4{fill:url(#Path_50-2_1_);}
</style>
<g id="logo" transform="translate(-127.83 -26.878)">
	<g id="Symbol_1_1">
		<g class="st0">
			<path class="st1" d="M187.9,60l-1.1-3.2H180L179,60h-4.9l6.6-19h5.6l6.6,19H187.9z M181.2,53.3h4.5l-2.2-6.8L181.2,53.3z"/>
			<path class="st1" d="M199.7,46.9c1-1.4,2.5-2.1,4.4-2.1s3.5,0.7,4.9,2.2c1.3,1.4,2,3.3,2,5.5s-0.7,4.1-2,5.5
				c-1.3,1.4-2.9,2.2-4.8,2.2c-1.9,0-3.4-0.8-4.5-2.4v9.4h-4.6V44.9h4.6V46.9z M205.3,55.2c0.7-0.6,1-1.6,1-2.7c0-1.2-0.3-2.1-1-2.8
				c-0.7-0.6-1.4-1-2.3-1c-0.9,0-1.6,0.3-2.3,1c-0.7,0.6-1,1.6-1,2.7c0,1.2,0.3,2.1,1,2.8c0.7,0.6,1.4,1,2.3,1
				C203.9,56.2,204.7,55.9,205.3,55.2z"/>
			<path class="st1" d="M218.6,46.9c1-1.4,2.5-2.1,4.4-2.1s3.5,0.7,4.9,2.2c1.3,1.4,2,3.3,2,5.5s-0.7,4.1-2,5.5
				c-1.3,1.4-2.9,2.2-4.8,2.2c-1.9,0-3.4-0.8-4.5-2.4v9.4H214V44.9h4.6V46.9z M224.2,55.2c0.7-0.6,1-1.6,1-2.7c0-1.2-0.3-2.1-1-2.8
				c-0.7-0.6-1.4-1-2.3-1c-0.9,0-1.6,0.3-2.3,1c-0.7,0.6-1,1.6-1,2.7c0,1.2,0.3,2.1,1,2.8c0.7,0.6,1.4,1,2.3,1
				C222.7,56.2,223.5,55.9,224.2,55.2z"/>
			<path class="st1" d="M239.2,56.1h1.6V60h-2.3c-1.7,0-3-0.4-3.9-1.1s-1.4-2-1.4-3.8v-6.3h-1.4v-3.8h1.4v-3.7h4.6v3.7h3v3.8h-3V55
				C237.8,55.7,238.3,56.1,239.2,56.1z"/>
			<path class="st1" d="M245.2,58.1c-1.5-1.4-2.3-3.3-2.3-5.6c0-2.3,0.8-4.2,2.3-5.6c1.5-1.4,3.4-2.1,5.6-2.1c2.2,0,4.1,0.7,5.6,2.1
				c1.5,1.4,2.3,3.3,2.3,5.6c0,2.3-0.7,4.2-2.2,5.6c-1.5,1.4-3.4,2.1-5.6,2.1C248.6,60.2,246.7,59.5,245.2,58.1z M253.1,55.3
				c0.6-0.6,0.9-1.6,0.9-2.8c0-1.2-0.3-2.2-0.9-2.8s-1.4-1-2.2-1c-0.9,0-1.6,0.3-2.2,1c-0.6,0.6-0.9,1.6-0.9,2.8
				c0,1.2,0.3,2.2,1,2.8c0.6,0.6,1.4,1,2.3,1S252.4,55.9,253.1,55.3z"/>
			<path class="st1" d="M266.3,44.9v2.2c1-1.6,2.5-2.4,4.6-2.4c1.7,0,3.1,0.6,4.2,1.7c1.1,1.2,1.6,2.7,1.6,4.7V60H272v-8.2
				c0-1-0.3-1.7-0.8-2.3c-0.5-0.5-1.2-0.8-2.1-0.8c-0.9,0-1.6,0.3-2.1,0.8c-0.5,0.5-0.8,1.3-0.8,2.3V60h-4.6V44.9H266.3z"/>
		</g>
	</g>
	<g id="logo-2" transform="translate(132.192 69.134)">
		<g id="Group_91" transform="translate(0 -73.6)">
			
				<linearGradient id="Path_48_1_" gradientUnits="userSpaceOnUse" x1="-459.8688" y1="28.2279" x2="-458.8688" y2="28.2279" gradientTransform="matrix(40.649 0 0 24.417 18688.7949 -621.3367)">
				<stop  offset="7.000001e-03" style="stop-color:#3CB5FB"/>
				<stop  offset="1" style="stop-color:#0071FF"/>
			</linearGradient>
			<path id="Path_48" class="st2" d="M36.2,68.1L14,55.7L-4.4,66.8l20.6,13.3L36.2,68.1z"/>
			
				<linearGradient id="Path_49_1_" gradientUnits="userSpaceOnUse" x1="-459.2313" y1="28.6047" x2="-459.5043" y2="27.8167" gradientTransform="matrix(40.649 0 0 24.417 18688.7949 -621.3367)">
				<stop  offset="0" style="stop-color:#E7475E"/>
				<stop  offset="0.78" style="stop-color:#F9566E"/>
				<stop  offset="1" style="stop-color:#F56378"/>
			</linearGradient>
			<path id="Path_49" class="st3" d="M36.2,68.1L14,55.7L-4.4,66.8l20.6,13.3L36.2,68.1z"/>
			<g transform="matrix(1, 0, 0, 1, -4.36, 31.34)">
				
					<linearGradient id="Path_50-2_1_" gradientUnits="userSpaceOnUse" x1="-450.9013" y1="18.8195" x2="-449.9013" y2="18.8195" gradientTransform="matrix(39.775 0 0 35.453 17934.6855 -649.5047)">
					<stop  offset="0" style="stop-color:#FF8F8F"/>
					<stop  offset="0.315" style="stop-color:#FD6A7F"/>
					<stop  offset="1" style="stop-color:#E7475E"/>
				</linearGradient>
				<path id="Path_50-2" class="st4" d="M39.8,11.6L20.7,0L0.1,13.4v22L39.8,11.6z"/>
			</g>
		</g>
	</g>
</g>
</svg>
