<svg id="monitor" xmlns="http://www.w3.org/2000/svg" viewBox="0 0 52.303 52.303">
  <defs>
    <style>
      .cls-1 {
        fill: #e7475e;
      }

      .cls-2 {
        fill: #322153;
      }
    </style>
  </defs>
  <path id="Path_306" data-name="Path 306" class="cls-1" d="M8,303.214a3.618,3.618,0,0,0,3.607,3.607H54.893a3.618,3.618,0,0,0,3.607-3.607V296H8Z" transform="translate(-7.098 -262.634)"/>
  <g id="Group_148" data-name="Group 148">
    <path id="Path_307" data-name="Path 307" class="cls-2" d="M47.794,0H4.509A4.465,4.465,0,0,0,0,4.509V36.973a4.465,4.465,0,0,0,4.509,4.509H17.495l-2.705,5.411H13.527A2.657,2.657,0,0,0,10.821,49.6a2.456,2.456,0,0,0,.812,1.894,2.6,2.6,0,0,0,1.894.812h25.25A2.657,2.657,0,0,0,41.482,49.6a2.774,2.774,0,0,0-2.705-2.705H37.514l-2.705-5.411H47.794A4.465,4.465,0,0,0,52.3,36.973V4.509A4.465,4.465,0,0,0,47.794,0ZM35.53,46.893H18.937a.9.9,0,0,0,0,1.8H38.777a.925.925,0,0,1,.9.9.852.852,0,0,1-.9.9H13.527a.925.925,0,0,1-.9-.9.852.852,0,0,1,.9-.9h1.8a.867.867,0,0,0,.812-.541l1.533-3.066h4.87a.9.9,0,1,0,0-1.8H18.577l.9-1.8H32.825Zm12.264-7.214H4.509A2.657,2.657,0,0,1,1.8,36.973V4.509A2.657,2.657,0,0,1,4.509,1.8H47.794A2.657,2.657,0,0,1,50.5,4.509V28.857H4.509a.9.9,0,1,0,0,1.8H50.5v6.312A2.657,2.657,0,0,1,47.794,39.678Z"/>
    <path id="Path_308" data-name="Path 308" class="cls-2" d="M210.705,288a2.705,2.705,0,1,0,2.705,2.705A2.657,2.657,0,0,0,210.705,288Zm0,3.607a.9.9,0,1,1,.9-.9A.852.852,0,0,1,210.705,291.607Z" transform="translate(-184.554 -255.536)"/>
    <path id="Path_309" data-name="Path 309" class="cls-2" d="M32.9,41.018a.819.819,0,0,0,.631-.271l7.214-7.214a.893.893,0,0,0-1.262-1.262l-7.214,7.214a.872.872,0,0,0,0,1.262A.819.819,0,0,0,32.9,41.018Z" transform="translate(-28.393 -28.393)"/>
    <path id="Path_310" data-name="Path 310" class="cls-2" d="M32.9,37.411a.819.819,0,0,0,.631-.271l3.607-3.607a.893.893,0,0,0-1.262-1.262l-3.607,3.607a.872.872,0,0,0,0,1.262A.819.819,0,0,0,32.9,37.411Z" transform="translate(-28.393 -28.393)"/>
    <path id="Path_311" data-name="Path 311" class="cls-2" d="M67.878,64.271l-3.607,3.607a.872.872,0,0,0,0,1.262.872.872,0,0,0,1.262,0l3.607-3.607a.893.893,0,0,0-1.262-1.262Z" transform="translate(-56.786 -56.786)"/>
    <path id="Path_312" data-name="Path 312" class="cls-2" d="M388.509,288a.852.852,0,0,0-.9.9,2.581,2.581,0,0,1-2.705,2.705.9.9,0,0,0-.9.9.852.852,0,0,0,.9.9,4.335,4.335,0,0,0,4.509-4.509A.852.852,0,0,0,388.509,288Z" transform="translate(-340.715 -255.536)"/>
  </g>
</svg>
