<svg xmlns="http://www.w3.org/2000/svg" viewBox="0 0 400 432">
  <defs>
    <style>
      .cls-1 {
        fill: #e7475e;
      }

      .cls-2 {
        fill: #322153;
      }
    </style>
  </defs>
  <g id="multimedia" transform="translate(-16)">
    <path id="Path_373" data-name="Path 373" class="cls-1" d="M344,71.984A31.988,31.988,0,0,0,312,40H120A31.988,31.988,0,0,0,88,71.984V274.648l128,85.336,128-85.336Z"/>
    <g id="Group_157" data-name="Group 157">
      <path id="Path_374" data-name="Path 374" class="cls-2" d="M312,0H120A40.045,40.045,0,0,0,80,40V153.056L19.56,193.344a8.129,8.129,0,0,0-.928.8c-.128.112-.264.208-.376.328a7.958,7.958,0,0,0-1.48,2.192c-.088.184-.144.368-.216.56A7.988,7.988,0,0,0,16,200V424a8.028,8.028,0,0,0,8,8H408a8.028,8.028,0,0,0,8-8V200a7.988,7.988,0,0,0-.56-2.776c-.072-.192-.136-.376-.216-.568a7.931,7.931,0,0,0-1.472-2.192c-.12-.12-.256-.216-.376-.328a8.022,8.022,0,0,0-.928-.8L352,153.056V40A40.045,40.045,0,0,0,312,0Zm88,404.688L286.16,290.848,400,214.944ZM32,214.944l113.84,75.9L32,404.688Zm125.656,86.712a7.737,7.737,0,0,0,1.352-2.04l52.552,35.04a8.006,8.006,0,0,0,8.88,0l52.552-35.04a7.869,7.869,0,0,0,1.352,2.04L388.688,416H43.312ZM96,40a24.029,24.029,0,0,1,24-24H312a24.029,24.029,0,0,1,24,24V238.384l-120,80-120-80ZM80,172.28v55.432L38.424,200ZM393.576,200,352,227.72V172.28Z"/>
      <path id="Path_375" data-name="Path 375" class="cls-2" d="M184,80h64a8,8,0,0,0,0-16H184a8,8,0,0,0,0,16Z"/>
      <path id="Path_376" data-name="Path 376" class="cls-2" d="M120,144H312a8,8,0,0,0,0-16H120a8,8,0,0,0,0,16Z"/>
      <path id="Path_377" data-name="Path 377" class="cls-2" d="M120,176H312a8,8,0,0,0,0-16H120a8,8,0,0,0,0,16Z"/>
      <path id="Path_378" data-name="Path 378" class="cls-2" d="M320,200a7.993,7.993,0,0,0-8-8H120a8,8,0,0,0,0,16H312A7.993,7.993,0,0,0,320,200Z"/>
    </g>
  </g>
</svg>
