<svg xmlns="http://www.w3.org/2000/svg" viewBox="0 0 63.254 61.206">
  <defs>
    <style>
      .cls-1 {
        fill: #e7475e;
      }

      .cls-2 {
        fill: #322153;
      }
    </style>
  </defs>
  <g id="pen" transform="translate(0 -7.5)">
    <path id="Path_331" data-name="Path 331" class="cls-1" d="M189.7,48.969l-22.5,22.5,13.11,13.11,23.16-23.16a4.353,4.353,0,0,0,0-6.227l-6.336-6.336A5.31,5.31,0,0,0,189.7,48.969Z" transform="translate(-144.367 -34.45)"/>
    <g id="Group_152" data-name="Group 152" transform="translate(0 7.5)">
      <path id="Path_332" data-name="Path 332" class="cls-2" d="M59.867,15.721,53.531,9.385a6.265,6.265,0,0,0-8.958,0l-22.5,22.5V32l-.218.218v.109c0,.109-.109.218-.109.328v2.513a2.975,2.975,0,0,1-.983,2.294L4.588,53.739a.568.568,0,0,0-.218.437h0L0,67.285v.328H0a.4.4,0,0,0,.109.328v.109c0,.109.109.218.218.328s.218.218.328.218c0,.109.218.109.328.109H27.2a1.092,1.092,0,0,0,0-2.185H7.756l6.773-2.294h0a.828.828,0,0,0,.437-.218L31.135,47.839a3.144,3.144,0,0,1,2.294-.983h2.513a.657.657,0,0,0,.437-.109c.109-.109.218-.109.328-.218l23.16-23.16a4.935,4.935,0,0,0,1.2-1.857v.218a4.221,4.221,0,0,1-1.2,2.95l-15.95,15.95a1.056,1.056,0,0,0,0,1.529,1.056,1.056,0,0,0,1.529,0L61.4,26.208a6.33,6.33,0,0,0,0-8.958ZM5.79,56.579l6.227,6.227-9.4,3.168Zm52.548-34.74L35.505,44.671H33.429a5.124,5.124,0,0,0-3.824,1.639l-15.513,15.4L6.883,54.5l15.4-15.4a6.1,6.1,0,0,0,1.639-3.824l6.883,6.883a1.081,1.081,0,0,0,1.529-1.529l-7.975-7.975L46.1,10.914a4.154,4.154,0,0,1,5.9,0l6.336,6.336A3.371,3.371,0,0,1,58.338,21.839Z" transform="translate(0 -7.5)"/>
      <path id="Path_333" data-name="Path 333" class="cls-2" d="M76.637,248.028l-13.11,13.11a1.056,1.056,0,0,0,0,1.529,1.056,1.056,0,0,0,1.529,0l13.11-13.11a1.081,1.081,0,0,0-1.529-1.529Z" transform="translate(-54.57 -214.899)"/>
      <path id="Path_334" data-name="Path 334" class="cls-2" d="M296.267,56.028l-8.74,8.74a1.056,1.056,0,0,0,0,1.529,1.056,1.056,0,0,0,1.529,0l8.74-8.74a1.081,1.081,0,0,0-1.529-1.529Z" transform="translate(-247.981 -49.118)"/>
      <path id="Path_335" data-name="Path 335" class="cls-2" d="M288.292,62.255a.992.992,0,0,0,.765-.328l4.37-4.37a1.081,1.081,0,0,0-1.529-1.529l-4.37,4.37a1.056,1.056,0,0,0,0,1.529A.992.992,0,0,0,288.292,62.255Z" transform="translate(-247.981 -49.118)"/>
      <path id="Path_336" data-name="Path 336" class="cls-2" d="M323.9,88.028l-4.37,4.37a1.056,1.056,0,0,0,0,1.529,1.056,1.056,0,0,0,1.529,0l4.37-4.37a1.081,1.081,0,0,0-1.529-1.529Z" transform="translate(-275.611 -76.748)"/>
      <path id="Path_337" data-name="Path 337" class="cls-2" d="M224.292,441.885h17.479a1.092,1.092,0,1,0,0-2.185H224.292a1.092,1.092,0,1,0,0,2.185Z" transform="translate(-192.72 -380.68)"/>
      <path id="Path_338" data-name="Path 338" class="cls-2" d="M388.662,441.885a1.092,1.092,0,0,0,0-2.185h-4.37a1.092,1.092,0,1,0,0,2.185Z" transform="translate(-330.871 -380.68)"/>
    </g>
  </g>
</svg>
