<svg xmlns="http://www.w3.org/2000/svg" viewBox="0 0 281.522 410.044">
  <defs>
    <style>
      .cls-1 {
        fill: #e7475e;
      }

      .cls-2 {
        fill: #322153;
      }
    </style>
  </defs>
  <g id="placeholder" transform="translate(-76.364)">
    <path id="Path_379" data-name="Path 379" class="cls-1" d="M218.278,416.268c53.857,0,134.642-167.992,134.642-242.355a134.642,134.642,0,1,0-269.283,0C83.636,248.276,164.421,416.268,218.278,416.268Zm0-323.14a80.785,80.785,0,1,1-80.785,80.785A80.789,80.789,0,0,1,218.278,93.129Z" transform="translate(-1.153 -6.224)"/>
    <g id="Group_158" data-name="Group 158" transform="translate(76.364)">
      <path id="Path_380" data-name="Path 380" class="cls-2" d="M227.268,237.809a86.9,86.9,0,1,0-86.9-86.9A87,87,0,0,0,227.268,237.809Zm0-161.57A74.665,74.665,0,1,1,152.6,150.9,74.755,74.755,0,0,1,227.268,76.239Z" transform="translate(-86.507 -10.143)"/>
      <path id="Path_381" data-name="Path 381" class="cls-2" d="M217.125,389.235c58.966,0,140.761-172.509,140.761-248.474C357.886,63.147,294.739,0,217.125,0S76.364,63.147,76.364,140.761C76.364,216.726,158.159,389.235,217.125,389.235Zm0-377A128.67,128.67,0,0,1,345.647,140.761C345.647,215.972,264.963,377,217.125,377S88.6,215.972,88.6,140.761A128.675,128.675,0,0,1,217.125,12.239Z" transform="translate(-76.364)"/>
      <path id="Path_382" data-name="Path 382" class="cls-2" d="M227.268,395.712c-18.2,0-54.961-60.925-75.244-104.192a6.121,6.121,0,0,0-11.088,5.19c8.711,18.581,53.789,111.234,86.325,111.234a6.116,6.116,0,0,0,.007-12.232Z" transform="translate(-86.507 -45.644)"/>
      <path id="Path_383" data-name="Path 383" class="cls-2" d="M242.483,44.239A101.711,101.711,0,0,1,344.077,145.833a6.119,6.119,0,0,0,12.239,0A113.967,113.967,0,0,0,242.483,32a6.119,6.119,0,1,0,0,12.239Z" transform="translate(-101.722 -5.072)"/>
    </g>
  </g>
</svg>
