<svg xmlns="http://www.w3.org/2000/svg" viewBox="0 0 433.867 457.881">
  <defs>
    <style>
      .cls-1 {
        fill: #e7475e;
      }

      .cls-2 {
        fill: #322153;
      }
    </style>
  </defs>
  <g id="technology" transform="translate(-12.007)">
    <path id="Path_384" data-name="Path 384" class="cls-1" d="M409.566,339.386a55.918,55.918,0,0,0-79.072,0,48,48,0,0,1-55.408,8.992h0A325.575,325.575,0,0,1,129.5,202.794a48,48,0,0,1,8.992-55.408,55.918,55.918,0,0,0,0-79.072L130.03,59.85a67.878,67.878,0,0,0-96,0,47.629,47.629,0,0,0-13.456,41.08C27.43,144.514,52.718,238.538,146.03,331.85s187.336,118.6,230.92,125.456a47.629,47.629,0,0,0,41.08-13.456,67.878,67.878,0,0,0,0-96Z"/>
    <g id="Group_159" data-name="Group 159">
      <path id="Path_385" data-name="Path 385" class="cls-2" d="M12.67,70.17c7.5,47.7,34.064,141.7,127.7,235.336s187.64,120.2,235.336,127.7a54.486,54.486,0,0,0,8.512.664,55.99,55.99,0,0,0,39.464-16.368,75.971,75.971,0,0,0,0-107.312l-8.464-8.464a63.991,63.991,0,0,0-90.392,0,39.968,39.968,0,0,1-46.168,7.5A319.5,319.5,0,0,1,136.654,167.218a39.94,39.94,0,0,1,7.5-46.168,63.991,63.991,0,0,0,0-90.392l-8.464-8.464a75.956,75.956,0,0,0-107.312,0A55.831,55.831,0,0,0,12.67,70.17ZM82.03,16a59.693,59.693,0,0,1,42.344,17.5l8.464,8.464a47.98,47.98,0,0,1,0,67.768,55.955,55.955,0,0,0-10.5,64.64A335.637,335.637,0,0,0,271.51,323.546a55.961,55.961,0,0,0,64.64-10.5,47.966,47.966,0,0,1,67.768,0l8.464,8.464a59.96,59.96,0,0,1,0,84.688,39.582,39.582,0,0,1-34.176,11.2c-45.776-7.192-136.072-32.768-226.5-123.2S35.678,113.458,28.486,67.682a39.784,39.784,0,0,1,11.2-34.176A59.693,59.693,0,0,1,82.03,16Z"/>
      <path id="Path_386" data-name="Path 386" class="cls-2" d="M82.038,179.85a7.8,7.8,0,0,0,3.512-.824,7.994,7.994,0,0,0,3.656-10.7C44.166,76.434,56.23,49.274,56.806,48.09a8,8,0,0,0-13.36-8.8c-3.456,4.984-18.168,34.984,31.4,136.08A7.984,7.984,0,0,0,82.038,179.85Z"/>
      <path id="Path_387" data-name="Path 387" class="cls-2" d="M242.03,163.85a40,40,0,1,0,40,40A40.045,40.045,0,0,0,242.03,163.85Zm0,64a24,24,0,1,1,24-24A24.029,24.029,0,0,1,242.03,227.85Z"/>
      <path id="Path_388" data-name="Path 388" class="cls-2" d="M306.03,211.85a7.993,7.993,0,0,0,8-8,72.078,72.078,0,0,0-72-72,8,8,0,0,0,0,16,56.072,56.072,0,0,1,56,56A7.993,7.993,0,0,0,306.03,211.85Z"/>
      <path id="Path_389" data-name="Path 389" class="cls-2" d="M338.03,211.85a7.993,7.993,0,0,0,8-8,104.12,104.12,0,0,0-104-104,8,8,0,0,0,0,16,88.1,88.1,0,0,1,88,88A7.993,7.993,0,0,0,338.03,211.85Z"/>
      <path id="Path_390" data-name="Path 390" class="cls-2" d="M370.03,211.85a7.993,7.993,0,0,0,8-8c0-74.992-61.008-136-136-136a8,8,0,1,0,0,16,120.136,120.136,0,0,1,120,120A7.993,7.993,0,0,0,370.03,211.85Z"/>
      <path id="Path_391" data-name="Path 391" class="cls-2" d="M402.03,211.85a7.993,7.993,0,0,0,8-8c0-92.632-75.368-168-168-168a8,8,0,0,0,0,16c83.816,0,152,68.184,152,152A7.993,7.993,0,0,0,402.03,211.85Z"/>
    </g>
  </g>
</svg>
